<svg width="59" height="39" viewBox="0 0 59 39" fill="none" xmlns="http://www.w3.org/2000/svg">
<path d="M55.9194 5.10232C54.6194 8.87567 53.1194 12.5523 50.6194 15.6484C46.9194 6.36013 40.6194 1.13548 29.4194 0.651716C19.8194 0.167952 10.2194 4.71535 6.11939 13.1328C4.41939 14.9711 2.91939 17.1964 0.719392 18.2607C-0.580608 18.8412 0.0193888 20.7762 1.41939 20.6795C1.91939 20.6795 3.91938 25.7106 4.51938 26.4846C5.71938 27.8392 7.41938 28.7099 9.01938 29.484C14.8194 32.2898 21.1194 34.4184 27.3194 36.1599C31.3194 37.321 38.0194 39.643 42.2194 37.9982C46.4194 36.4502 46.6194 29.9678 47.2194 25.9042C49.5527 26.8717 51.0861 28.6455 51.8194 31.2256C52.1194 32.3866 54.0194 32.193 54.0194 30.9353C54.2194 22.3243 55.5194 13.9068 58.1194 5.68281C58.5194 4.32827 56.4194 3.74778 55.9194 5.10232Z" fill="#122541"/>
</svg>
