<svg width="105" height="114" viewBox="0 0 105 114" fill="none" xmlns="http://www.w3.org/2000/svg">
<path d="M104.54 85.5376C100.74 66.3376 96.9403 46.7376 95.7403 27.2376C95.5403 24.7376 91.3402 23.7375 90.9402 26.6375C89.8402 33.7375 86.3403 37.4376 82.0403 40.3376C82.2403 38.8376 82.4403 37.3376 82.7403 35.8376C84.7403 26.0376 93.0402 13.0376 83.4402 4.43758C76.1402 -2.16242 61.6403 -0.0623703 53.0403 2.23763C41.3403 5.23763 30.6402 12.0376 22.9402 21.4376C13.6402 32.9376 10.3402 47.7376 2.94025 60.4376C1.24025 63.4376 -1.05965 66.4376 0.540345 70.0376C1.44035 72.1376 3.24032 73.4375 5.14032 74.6375C9.04032 82.8375 13.5403 91.9376 20.0403 97.0376C23.3403 99.7376 27.2403 100.838 31.1403 102.138C39.0403 104.538 45.4403 107.338 51.6403 112.938C53.6403 114.738 56.3403 112.438 55.2403 110.138C53.4403 106.338 51.0403 102.438 48.1403 99.6375C57.1403 102.138 66.7403 109.638 75.8403 108.638C86.9403 107.438 89.7403 97.3376 88.8403 87.7376C88.3403 82.3376 87.1402 76.9375 85.9402 71.6375C91.5402 74.9375 96.0403 80.7376 99.6403 87.5376C101.14 90.3376 105.04 88.3376 104.54 85.5376Z" fill="#0F1A32"/>
</svg>
