<svg width="50" height="50" viewBox="0 0 50 50" fill="none" xmlns="http://www.w3.org/2000/svg">
<path d="M43.5939 13.25C37.0627 3.12501 23.6877 0.12501 13.3439 6.40626C3.25016 12.6875 0.000155687 26.375 6.53141 36.4688L7.06266 37.2813L4.87516 45.4688L13.0627 43.2813L13.8752 43.8125C17.4064 45.7188 21.2502 46.8125 25.0627 46.8125C29.1564 46.8125 33.2502 45.7188 36.7814 43.5313C46.8752 36.9688 49.8752 23.5625 43.5939 13.1875V13.25ZM37.8752 34.3125C36.7814 35.9375 35.4064 37.0313 33.5002 37.3125C32.4064 37.3125 31.0314 37.8438 25.5939 35.6875C20.9689 33.5 17.1252 29.9375 14.4064 25.8438C12.7814 23.9375 11.9377 21.4688 11.6877 19C11.6877 16.8125 12.5002 14.9063 13.8752 13.5313C14.4064 13 14.9689 12.7188 15.5002 12.7188H16.8752C17.4064 12.7188 17.9689 12.7188 18.2502 13.8125C18.7814 15.1875 20.1564 18.4688 20.1564 18.75C20.4377 19.0313 20.3127 21.125 19.0627 22.3125C18.3752 23.0938 18.2502 23.125 18.5314 23.6875C19.6252 25.3125 21.0002 26.9688 22.3439 28.3438C23.9689 29.7188 25.6252 30.8125 27.5314 31.625C28.0627 31.9063 28.6252 31.9063 28.9064 31.3438C29.1877 30.8125 30.5314 29.4375 31.0939 28.875C31.6252 28.3438 31.9064 28.3438 32.4689 28.5938L36.8439 30.7813C37.3752 31.0625 37.9377 31.3125 38.2189 31.5938C38.5002 32.4063 38.5002 33.5 37.9377 34.3125H37.8752Z" fill="white"/>
</svg>
