<svg width="20" height="20" viewBox="0 0 20 20" fill="none" xmlns="http://www.w3.org/2000/svg">
<g clip-path="url(#clip0_1_2544)">
<path d="M10.0002 17.5002C10.9851 17.5002 11.9603 17.3062 12.8703 16.9293C13.7802 16.5524 14.607 15.9999 15.3035 15.3035C15.9999 14.607 16.5524 13.7802 16.9293 12.8703C17.3062 11.9603 17.5002 10.9851 17.5002 10.0002C17.5002 9.01525 17.3062 8.03998 16.9293 7.13004C16.5524 6.2201 15.9999 5.3933 15.3035 4.69686C14.607 4.00042 13.7802 3.44798 12.8703 3.07107C11.9603 2.69416 10.9851 2.50016 10.0002 2.50016C8.01104 2.50016 6.10338 3.29034 4.69686 4.69686C3.29034 6.10338 2.50016 8.01104 2.50016 10.0002C2.50016 11.9893 3.29034 13.8969 4.69686 15.3035C6.10338 16.71 8.01104 17.5002 10.0002 17.5002ZM19.1668 10.0002C19.1668 15.0627 15.0627 19.1668 10.0002 19.1668C4.93766 19.1668 0.833496 15.0627 0.833496 10.0002C0.833496 4.93766 4.93766 0.833496 10.0002 0.833496C15.0627 0.833496 19.1668 4.93766 19.1668 10.0002ZM12.5002 13.6785L9.16683 10.3452V4.5835H10.8335V9.65516L13.6785 12.5002L12.5002 13.6785Z" fill="black"/>
</g>
<defs>
<clipPath id="clip0_1_2544">
<rect width="20" height="20" fill="white"/>
</clipPath>
</defs>
</svg>
