<svg width="40" height="40" viewBox="0 0 40 40" fill="none" xmlns="http://www.w3.org/2000/svg">
<path d="M19.5748 3.25584C19.9141 2.42845 21.0859 2.42845 21.4252 3.25583L25.3776 12.8926C25.5213 13.2428 25.8504 13.4819 26.2278 13.5103L36.6143 14.2913C37.506 14.3584 37.8681 15.4728 37.1861 16.0512L29.2424 22.7881C28.9537 23.0329 28.828 23.4198 28.9176 23.7876L31.3844 33.907C31.5962 34.7758 30.6482 35.4646 29.8874 34.9946L21.0255 29.5215C20.7034 29.3226 20.2966 29.3226 19.9745 29.5215L11.1126 34.9946C10.3518 35.4646 9.40384 34.7758 9.61563 33.907L12.0824 23.7876C12.172 23.4198 12.0463 23.0329 11.7576 22.7881L3.81392 16.0512C3.1319 15.4728 3.49398 14.3584 4.38573 14.2913L14.7722 13.5103C15.1496 13.4819 15.4787 13.2428 15.6224 12.8926L19.5748 3.25584Z" fill="#FEE500"/>
</svg>
