<svg width="24" height="24" viewBox="0 0 24 24" fill="none" xmlns="http://www.w3.org/2000/svg">
<path d="M17 9C17 7.619 16.44 6.369 15.536 5.465C14.631 4.56 13.381 4 12 4C10.619 4 9.369 4.56 8.464 5.465C7.56 6.369 7 7.619 7 9C7 10.381 7.56 11.631 8.464 12.535C9.369 13.44 10.619 14 12 14C13.381 14 14.631 13.44 15.536 12.535C16.0009 12.0713 16.3695 11.5202 16.6207 10.9136C16.872 10.3069 17.0009 9.65662 17 9ZM6 19C6 20 8.25 21 12 21C15.518 21 18 20 18 19C18 17 15.646 15 12 15C8.25 15 6 17 6 19Z" fill="white"/>
</svg>
