<svg width="50" height="50" viewBox="0 0 50 50" fill="none" xmlns="http://www.w3.org/2000/svg">
<g clip-path="url(#clip0_437_2302)">
<path d="M45.0412 11.5972L26.9857 2.97223C26.7973 2.88121 26.5908 2.83394 26.3815 2.83394C26.1723 2.83394 25.9658 2.88121 25.7774 2.97223L4.94402 13.0278C4.70767 13.1404 4.50795 13.3174 4.36788 13.5386C4.22781 13.7598 4.15309 14.016 4.15235 14.2778V37.2639C4.15141 37.535 4.22981 37.8004 4.37788 38.0274C4.52596 38.2545 4.73724 38.4332 4.98569 38.5417L23.0412 47.1389C23.2296 47.2299 23.4362 47.2772 23.6454 47.2772C23.8546 47.2772 24.0612 47.2299 24.2496 47.1389L45.0829 37.0833C45.3193 36.9708 45.519 36.7937 45.6591 36.5725C45.7991 36.3514 45.8738 36.0951 45.8746 35.8333V12.8472C45.8702 12.5809 45.7893 12.3215 45.6415 12.0998C45.4938 11.8782 45.2854 11.7037 45.0412 11.5972ZM26.3885 5.7639L41.569 13.0139L34.5551 16.4028L19.7357 8.97223L26.3885 5.7639ZM23.6107 21.7222L8.33291 14.4583L16.5274 10.5L31.3885 17.9306L23.6107 21.7222ZM24.9996 43.6667V24.1111L43.0551 15.375V34.9583L24.9996 43.6667Z" fill="#FDB806"/>
</g>
<defs>
<clipPath id="clip0_437_2302">
<rect width="50" height="50" fill="white"/>
</clipPath>
</defs>
</svg>
