<svg width="99" height="101" viewBox="0 0 99 101" fill="none" xmlns="http://www.w3.org/2000/svg">
<path d="M22.4257 92.0592C22.5257 84.8592 23.8257 78.1592 27.1257 72.9592C28.4257 77.9592 29.6257 82.9593 31.5257 87.6593C34.7257 96.0593 41.4257 103.359 51.2257 99.7593C59.2257 96.7593 64.0257 86.4593 70.6257 80.6593C69.3257 84.2593 69.0257 88.4592 69.0257 92.4592C69.1257 94.8592 72.3257 95.5593 73.2257 93.2593C76.1257 85.9593 80.2257 80.9593 85.8257 75.6593C88.6257 72.9593 91.4257 70.3593 93.0257 66.7593C96.2257 59.7593 96.2257 50.2593 95.9257 41.7593C97.1257 39.9593 98.1257 38.1592 98.0257 35.9592C97.7257 32.3592 94.6257 30.7592 91.8257 28.9592C80.3257 21.4592 71.3257 10.3593 58.6257 4.65929C48.3257 -0.0407138 36.4257 -1.14071 25.3257 1.15929C17.2257 2.85929 4.2257 7.15929 0.925701 15.6593C-3.4743 26.9593 8.92569 34.3593 14.7257 41.6593C15.659 42.7926 16.4924 43.9593 17.2257 45.1593C12.4257 44.5593 7.92568 42.9592 4.02568 37.4592C2.42568 35.1592 -0.674311 37.7592 0.225689 39.9592C7.42569 56.7592 12.5257 74.7592 17.4257 92.3592C18.2257 94.9592 22.3257 94.9592 22.4257 92.0592Z" fill="#122541"/>
</svg>
