<svg width="167" height="84" viewBox="0 0 167 84" fill="none" xmlns="http://www.w3.org/2000/svg">
<path d="M166.593 44.9084C166.326 44.4417 166.026 43.9749 165.693 43.5083C165.693 43.3083 165.593 43.1082 165.393 43.0083C153.793 24.6083 136.593 8.30825 115.093 2.50825C104.893 -0.291748 94.2926 -0.39165 84.0926 2.60835C67.4926 7.70835 54.0926 19.3083 35.5926 14.8083C33.6926 14.3083 31.6926 16.9083 33.4926 18.3083C38.3926 22.1083 42.3926 26.3083 45.0926 31.8083C50.1926 42.3083 44.1926 38.5083 37.4926 36.3083C24.8926 32.1083 13.6926 25.8083 3.19265 17.7083C3.19265 17.775 3.19265 17.8083 3.19265 17.8083C1.19265 16.9083 -1.20735 19.4083 0.692648 20.9083C0.825982 21.0416 0.959279 21.1417 1.09261 21.2083C1.49261 21.475 1.85932 21.7416 2.19265 22.0083C3.05932 22.6749 3.92596 23.3083 4.79262 23.9083C13.1926 30.3083 21.2926 38.0082 21.1926 49.2082C20.9926 61.6082 11.3927 68.7083 1.89266 75.5083C-0.00733924 76.9083 1.79266 80.2083 3.89266 78.8083C18.2927 68.9083 33.9927 58.9083 51.3927 56.8083C42.7927 61.7083 37.0926 70.7084 36.5926 81.6084C36.5926 83.1084 38.0927 84.1083 39.3927 83.8083C74.4927 75.2083 128.593 90.1084 154.393 58.9084C156.493 57.6084 158.393 55.8083 159.893 54.3083C161.593 52.5083 163.493 50.5082 164.593 48.2082C166.093 48.1082 167.493 46.4084 166.593 44.9084Z" fill="#0F1A32"/>
</svg>
