<svg width="50" height="50" viewBox="0 0 50 50" fill="none" xmlns="http://www.w3.org/2000/svg">
<path d="M10.9376 6.25C10.6477 6.25001 10.3635 6.33069 10.1168 6.48301C9.87006 6.63534 9.67061 6.85329 9.54072 7.1125L3.29072 19.6125C3.15555 19.8816 3.10105 20.1841 3.13376 20.4835C3.16647 20.7829 3.285 21.0664 3.47509 21.3L18.8095 40.1719C18.7698 39.8034 18.7499 39.4331 18.7501 39.0625C18.7501 37.9531 18.9813 36.8969 19.4001 35.9406L7.96884 21.875H16.0407L20.0563 34.7344C20.7095 33.7594 21.572 32.9375 22.5845 32.3375L19.3126 21.875H23.9688C24.3785 20.7226 25.0091 19.6611 25.8251 18.75H19.1876L21.5313 9.375H28.4688L30.1251 16.0156C31.1388 15.713 32.1965 15.584 33.2532 15.6344L31.6907 9.375H38.097L42.7845 18.75H39.8001C40.6063 19.6531 41.2438 20.7094 41.6532 21.875H42.0282L41.7626 22.2031C42.2351 23.7121 42.3179 25.3161 42.0032 26.8656L46.5251 21.2969C46.7151 21.0639 46.8338 20.7811 46.8671 20.4823C46.9003 20.1836 46.8467 19.8815 46.7126 19.6125L40.4626 7.1125C40.3325 6.85282 40.1325 6.63455 39.8852 6.48219C39.6379 6.32984 39.3531 6.24943 39.0626 6.25H10.9376ZM7.21572 18.75L11.9032 9.375H18.3095L15.9657 18.75H7.21572ZM39.0626 25C39.0626 26.6576 38.4041 28.2473 37.232 29.4194C36.0599 30.5915 34.4702 31.25 32.8126 31.25C31.155 31.25 29.5653 30.5915 28.3932 29.4194C27.2211 28.2473 26.5626 26.6576 26.5626 25C26.5626 23.3424 27.2211 21.7527 28.3932 20.5806C29.5653 19.4085 31.155 18.75 32.8126 18.75C34.4702 18.75 36.0599 19.4085 37.232 20.5806C38.4041 21.7527 39.0626 23.3424 39.0626 25ZM43.7501 39.0625C43.7501 42.9531 40.6251 46.875 32.8126 46.875C25.0001 46.875 21.8751 42.9688 21.8751 39.0625C21.8751 37.8193 22.369 36.627 23.248 35.7479C24.1271 34.8689 25.3194 34.375 26.5626 34.375H39.0626C40.3058 34.375 41.4981 34.8689 42.3772 35.7479C43.2562 36.627 43.7501 37.8193 43.7501 39.0625Z" fill="#FDB806"/>
</svg>
