<svg width="50" height="50" viewBox="0 0 50 50" fill="none" xmlns="http://www.w3.org/2000/svg">
<path d="M25 5C22.3478 5 19.8043 6.05357 17.9289 7.92893C16.0536 9.8043 15 12.3478 15 15C15 17.6522 16.0536 20.1957 17.9289 22.0711C19.8043 23.9464 22.3478 25 25 25C27.6522 25 30.1957 23.9464 32.0711 22.0711C33.9464 20.1957 35 17.6522 35 15C35 12.3478 33.9464 9.8043 32.0711 7.92893C30.1957 6.05357 27.6522 5 25 5ZM12.5225 27.5C11.8641 27.4974 11.2116 27.6247 10.6026 27.8748C9.99348 28.1249 9.43976 28.4927 8.97315 28.9572C8.50654 29.4217 8.13621 29.9738 7.88342 30.5818C7.63062 31.1897 7.50032 31.8416 7.5 32.5C7.5 36.7275 9.5825 39.915 12.8375 41.9925C16.0425 44.035 20.3625 45 25 45C25.8925 45 26.775 44.965 27.64 44.8925C27.4416 44.0264 27.4553 43.1253 27.6799 42.2656C27.9044 41.406 28.3333 40.6133 28.93 39.955L30.2925 38.4375C30.9119 37.7493 31.7049 37.2402 32.5884 36.9636C33.472 36.6869 34.4137 36.6529 35.315 36.865L37.2775 37.33C38.2225 36.55 38.795 35.63 39.0575 34.5275L37.7625 33.2625C37.0863 32.6028 36.6179 31.7597 36.4149 30.8371C36.2119 29.9145 36.2832 28.9526 36.62 28.07L36.835 27.5H12.5225ZM38.96 28.955L39.6675 27.08C40.3125 25.3775 42.3225 24.5375 44.0175 25.26L44.9875 25.675C46.17 26.18 47.1475 27.095 47.355 28.325C48.4975 35.1375 42.585 44.8275 35.78 47.3C34.55 47.745 33.2225 47.4 32.1675 46.685L31.3025 46.0975C30.9474 45.8583 30.6484 45.5449 30.4261 45.1789C30.2039 44.8129 30.0636 44.4031 30.0152 43.9777C29.9667 43.5522 30.0111 43.1213 30.1453 42.7147C30.2795 42.3081 30.5003 41.9355 30.7925 41.6225L32.155 40.105C32.4744 39.7517 32.8827 39.4904 33.3373 39.3484C33.7919 39.2064 34.2763 39.1888 34.74 39.2975L37.8025 40.0225C40.23 38.505 41.5325 36.3725 41.7075 33.6225L39.5125 31.475C39.1838 31.1552 38.9563 30.7459 38.8581 30.2979C38.7599 29.8499 38.7953 29.383 38.96 28.955Z" fill="white"/>
</svg>
