<svg width="20" height="20" viewBox="0 0 20 20" fill="none" xmlns="http://www.w3.org/2000/svg">
<path d="M7.41691 5.72276C7.42171 5.93005 7.38503 6.1362 7.30902 6.32911C7.23301 6.52202 7.1192 6.6978 6.97429 6.8461C6.82939 6.9944 6.6563 7.11224 6.4652 7.19269C6.2741 7.27315 6.06884 7.31459 5.8615 7.31459C5.65415 7.31459 5.4489 7.27315 5.2578 7.19269C5.0667 7.11224 4.89361 6.9944 4.7487 6.8461C4.60379 6.6978 4.48999 6.52202 4.41398 6.32911C4.33797 6.1362 4.30128 5.93005 4.30608 5.72276C4.31276 5.31459 4.47959 4.9254 4.7706 4.63911C5.06161 4.35283 5.45348 4.19238 5.86171 4.19238C6.26993 4.19238 6.6618 4.35283 6.95281 4.63911C7.24382 4.9254 7.41065 5.31459 7.41733 5.72276H7.41691Z" fill="black"/>
<path fill-rule="evenodd" clip-rule="evenodd" d="M4.04 10.8313C3.92287 11.0187 3.73608 11.152 3.52072 11.2016C3.30537 11.2513 3.07909 11.2135 2.89167 11.0963C2.70425 10.9792 2.57104 10.7924 2.52134 10.577C2.47165 10.3617 2.50953 10.1354 2.62667 9.94799L2.62834 9.94549L2.63125 9.9409L2.64125 9.92507C2.69411 9.84176 2.74842 9.75939 2.80417 9.67799C2.93931 9.47867 3.08134 9.28411 3.23 9.09465C3.39625 8.88465 3.60042 8.64757 3.81625 8.45507C3.92417 8.35882 4.05417 8.25632 4.20125 8.17382C4.33959 8.09632 4.55584 8.00049 4.82042 8.00049H6.90209C7.16667 8.00049 7.38292 8.09632 7.52167 8.17382C7.66834 8.25632 7.79875 8.35882 7.90625 8.45507C8.12209 8.64757 8.32667 8.88465 8.4925 9.09507C8.70234 9.36185 8.89883 9.63885 9.08125 9.92507L9.09167 9.9409L9.09459 9.94507L9.09584 9.94757C9.20976 10.1349 9.24531 10.3595 9.19476 10.5728C9.14421 10.7861 9.01165 10.9709 8.82579 11.0872C8.63993 11.2034 8.41576 11.2417 8.20183 11.1939C7.98791 11.146 7.80147 11.0157 7.68292 10.8313L7.68167 10.8297L7.675 10.8192C7.65418 10.7864 7.63307 10.7538 7.61167 10.7213V11.7563L7.91292 14.9209C7.93186 15.1366 7.86609 15.3512 7.72955 15.5193C7.593 15.6874 7.39639 15.7957 7.18137 15.8213C6.96635 15.8469 6.7498 15.7878 6.57759 15.6565C6.40538 15.5253 6.29103 15.3321 6.25875 15.118L5.83334 12.143L5.40834 15.118C5.37791 15.3338 5.26417 15.529 5.09151 15.6619C4.91884 15.7949 4.70098 15.8549 4.48461 15.8291C4.26823 15.8033 4.07056 15.6938 3.93395 15.5241C3.79733 15.3543 3.73265 15.1378 3.75375 14.9209L4.10375 11.2501H4.11125V10.7209C4.08975 10.7535 4.0685 10.7863 4.0475 10.8192L4.04125 10.8297L4.04 10.8313Z" fill="black"/>
<path d="M15.7499 5.72213C15.7499 6.13471 15.586 6.53039 15.2943 6.82212C15.0026 7.11386 14.6069 7.27775 14.1943 7.27775C13.7817 7.27775 13.386 7.11386 13.0943 6.82212C12.8026 6.53039 12.6387 6.13471 12.6387 5.72213C12.6387 5.30955 12.8026 4.91387 13.0943 4.62214C13.386 4.3304 13.7817 4.1665 14.1943 4.1665C14.6069 4.1665 15.0026 4.3304 15.2943 4.62214C15.586 4.91387 15.7499 5.30955 15.7499 5.72213Z" fill="black"/>
<path fill-rule="evenodd" clip-rule="evenodd" d="M12.3752 10.7436C12.2573 10.9279 12.0716 11.0585 11.8583 11.1071C11.645 11.1557 11.4211 11.1184 11.235 11.0034C11.0489 10.8883 10.9155 10.7047 10.8636 10.4922C10.8117 10.2796 10.8455 10.0552 10.9577 9.86734L10.9589 9.86484L10.9623 9.86025L10.9719 9.84442L11.0073 9.78859C11.1782 9.52261 11.3607 9.2643 11.5544 9.01442C11.7185 8.80442 11.921 8.56692 12.1344 8.374C12.2414 8.27775 12.3706 8.17442 12.5169 8.09192C12.6544 8.01359 12.871 7.9165 13.1369 7.9165H15.196C15.4619 7.9165 15.6785 8.01359 15.8164 8.0915C15.9623 8.17484 16.0914 8.27775 16.1985 8.374C16.4123 8.56692 16.6144 8.80442 16.7785 9.01442C16.9862 9.28123 17.1806 9.55809 17.361 9.844L17.371 9.86025L17.3752 9.86734C17.4914 10.0553 17.5283 10.2818 17.4775 10.4969C17.4268 10.712 17.2927 10.8982 17.1048 11.0144C16.9168 11.1307 16.6903 11.1675 16.4752 11.1168C16.2601 11.0661 16.0739 10.932 15.9577 10.744L15.9564 10.7419L15.9502 10.7315C15.8875 10.6328 15.8229 10.5352 15.7564 10.439C15.9514 11.4098 16.3356 12.7415 16.5364 13.4148C16.5532 13.4695 16.5584 13.5271 16.5518 13.5839C16.5451 13.6407 16.5268 13.6955 16.4979 13.7448C16.469 13.7942 16.4302 13.837 16.3839 13.8705C16.3376 13.9041 16.2848 13.9277 16.2289 13.9398C14.7552 14.2469 13.7235 14.239 12.1231 13.934C12.0657 13.9227 12.0113 13.8994 11.9635 13.8657C11.9156 13.8319 11.8755 13.7884 11.8456 13.7381C11.8157 13.6878 11.7968 13.6317 11.79 13.5736C11.7833 13.5154 11.7889 13.4565 11.8064 13.4007C12.0169 12.724 12.4081 11.4065 12.5935 10.414C12.5212 10.5185 12.4509 10.6243 12.3827 10.7315L12.3764 10.7419L12.3752 10.7436ZM12.3331 14.6465V15.2082C12.3333 15.3596 12.3884 15.5059 12.4883 15.6197C12.5882 15.7336 12.726 15.8073 12.8761 15.8271C13.0263 15.847 13.1785 15.8117 13.3046 15.7277C13.4306 15.6437 13.5219 15.5169 13.5614 15.3707L13.726 14.7607C13.2602 14.7441 12.7954 14.706 12.3331 14.6465ZM14.6894 14.759L14.8548 15.3711C14.8943 15.5173 14.9856 15.6442 15.1117 15.7282C15.2378 15.8121 15.3901 15.8474 15.5403 15.8275C15.6905 15.8076 15.8283 15.7338 15.9281 15.6199C16.028 15.506 16.0831 15.3597 16.0831 15.2082V14.6407C15.6205 14.7007 15.1555 14.7404 14.6894 14.759Z" fill="black"/>
</svg>
