<svg width="25" height="25" viewBox="0 0 25 25" fill="none" xmlns="http://www.w3.org/2000/svg">
<g clip-path="url(#clip0_1_696)">
<path d="M19.1667 22.5L19.4283 21.7083L19.065 21.5883L18.7367 21.7867L19.1667 22.5ZM22.5 19.1667L21.7983 18.7167L21.5833 19.0533L21.71 19.43L22.5 19.1667ZM24.1667 24.15L23.905 24.9433C24.0519 24.992 24.2095 24.9987 24.3601 24.9628C24.5106 24.9269 24.6482 24.8497 24.7574 24.74C24.8666 24.6303 24.9431 24.4924 24.9783 24.3417C25.0135 24.1909 25.006 24.0334 24.9567 23.8867L24.1667 24.1517V24.15ZM18.7367 21.7867C17.1433 22.745 14.595 23.3183 12.5 23.3183V24.985C14.8083 24.985 17.6767 24.3683 19.5967 23.2133L18.7367 21.7867ZM12.5 23.3167C6.51667 23.3167 1.66667 18.4683 1.66667 12.49H0C0.000437681 14.1311 0.324107 15.756 0.952528 17.272C1.58095 18.788 2.50181 20.1654 3.66255 21.3255C4.82328 22.4856 6.20115 23.4057 7.71748 24.0334C9.23381 24.661 10.8589 24.9838 12.5 24.9833V23.3167ZM1.66667 12.49C1.66799 9.61799 2.81005 6.86579 4.84165 4.83575C6.87324 2.80572 9.62799 1.66578 12.5 1.66667V4.45474e-07C9.18597 -0.000883798 6.00729 1.31465 3.66314 3.65724C1.31898 5.99984 0.00132585 9.17597 0 12.49H1.66667ZM12.5 1.66667C18.4833 1.66667 23.3333 6.51333 23.3333 12.4917H25C24.9987 9.17763 23.681 5.99984 21.3369 3.65724C18.9927 1.31465 15.814 -0.000883798 12.5 4.45474e-07V1.66667ZM23.3333 12.4917C23.3333 14.71 22.84 17.0883 21.7983 18.7167L23.2017 19.6167C24.4767 17.625 25 14.895 25 12.4917H23.3333ZM18.905 23.2917L23.905 24.9433L24.4283 23.36L19.4283 21.71L18.905 23.2917ZM24.9567 23.8867L23.29 18.9033L21.71 19.43L23.3767 24.415L24.9567 23.8867Z" fill="white"/>
</g>
<defs>
<clipPath id="clip0_1_696">
<rect width="25" height="25" fill="white"/>
</clipPath>
</defs>
</svg>
