<svg width="22" height="22" viewBox="0 0 22 22" fill="none" xmlns="http://www.w3.org/2000/svg">
<rect width="22" height="22" rx="4" fill="white"/>
<path d="M14.8333 5.85C14.2637 5.19969 13.9498 4.36453 13.95 3.5H11.375V13.8333C11.3551 14.3925 11.1191 14.9222 10.7165 15.3108C10.3139 15.6994 9.77621 15.9166 9.21667 15.9167C8.03334 15.9167 7.05001 14.95 7.05001 13.75C7.05001 12.3167 8.43334 11.2417 9.85834 11.6833V9.05C6.98334 8.66667 4.46667 10.9 4.46667 13.75C4.46667 16.525 6.76668 18.5 9.20834 18.5C11.825 18.5 13.95 16.375 13.95 13.75V8.50833C14.9942 9.25821 16.2478 9.66054 17.5333 9.65833V7.08333C17.5333 7.08333 15.9667 7.15833 14.8333 5.85Z" fill="#192C54"/>
</svg>
